# MagicaVoxel @ Ephtracy

# group
o 

# material
mtllib case.mtl
usemtl palette

# normals
vn -1 0 0
vn 1 0 0
vn 0 0 1
vn 0 0 -1
vn 0 -1 0
vn 0 1 0

# texcoords
vt 0.611328 0.5
vt 0.876953 0.5
vt 0.958984 0.5
vt 0.994141 0.5

# verts
v -2 1.1 2
v -2 1.1 -2
v -2 1.3 2
v -2 1.3 -2
v -2 1.4 2
v -2 1.4 -2
v -2 1.9 2
v -2 1.9 -2
v -2 2 2
v -2 2 -2
v -2 2.4 1.8
v -2 2.4 1.4
v -2 2.4 1.3
v -2 2.4 -1.3
v -2 2.4 -1.4
v -2 2.4 -1.8
v -2 2.5 2
v -2 2.5 1.8
v -2 2.5 1.4
v -2 2.5 1.3
v -2 2.5 -1.3
v -2 2.5 -1.4
v -2 2.5 -1.8
v -2 2.5 -2
v -1.9 1.3 1.9
v -1.9 1.3 -1.9
v -1.9 1.4 1.9
v -1.9 1.4 -1.9
v -1.9 1.9 1.9
v -1.9 1.9 -1.9
v -1.9 2 1.9
v -1.9 2 -1.9
v 0.8 2.4 1.3
v 0.8 2.4 1.2
v 0.8 2.4 -1.2
v 0.8 2.4 -1.3
v 0.8 2.5 1.3
v 0.8 2.5 1.2
v 0.8 2.5 -1.2
v 0.8 2.5 -1.3
v 0.9 2.3 1.4
v 0.9 2.3 1.3
v 0.9 2.3 -1.3
v 0.9 2.3 -1.4
v 0.9 2.4 1.4
v 0.9 2.4 1.3
v 0.9 2.4 1.2
v 0.9 2.4 -1.2
v 0.9 2.4 -1.3
v 0.9 2.4 -1.4
v 0.9 2.5 1.2
v 0.9 2.5 -1.2
v 1 1.3 1.9
v 1 1.3 1.8
v 1 1.3 1.4
v 1 1.3 -1.4
v 1 1.3 -1.8
v 1 1.3 -1.9
v 1 1.4 1.9
v 1 1.4 1.8
v 1 1.4 1.3
v 1 1.4 -1.3
v 1 1.4 -1.8
v 1 1.4 -1.9
v 1 1.8 1.4
v 1 1.8 1.3
v 1 1.8 -1.3
v 1 1.8 -1.4
v 1 1.9 1.9
v 1 1.9 1.8
v 1 1.9 1.4
v 1 1.9 0.2
v 1 1.9 0.0999999
v 1 1.9 -2.38419e-007
v 1 1.9 -0.1
v 1 1.9 -0.2
v 1 1.9 -0.3
v 1 1.9 -1.4
v 1 1.9 -1.8
v 1 1.9 -1.9
v 1 2 1.9
v 1 2 1.8
v 1 2 1.3
v 1 2 -1.3
v 1 2 -1.8
v 1 2 -1.9
v 1 2.3 1.4
v 1 2.3 1.3
v 1 2.3 -1.3
v 1 2.3 -1.4
v 1 2.4 1.3
v 1 2.4 -1.3
v 1.1 1.1 2
v 1.1 1.1 1.8
v 1.1 1.1 1.4
v 1.1 1.1 -1.4
v 1.1 1.1 -1.8
v 1.1 1.1 -2
v 1.1 1.2 2
v 1.1 1.2 1.8
v 1.1 1.2 1.4
v 1.1 1.2 -1.4
v 1.1 1.2 -1.8
v 1.1 1.2 -2
v 1.1 1.3 2
v 1.1 1.3 1.8
v 1.1 1.3 1.4
v 1.1 1.3 -1.4
v 1.1 1.3 -1.8
v 1.1 1.3 -2
v 1.1 1.4 2
v 1.1 1.4 1.8
v 1.1 1.4 1.3
v 1.1 1.4 -1.3
v 1.1 1.4 -1.8
v 1.1 1.4 -2
v 1.1 1.7 0.0999999
v 1.1 1.7 -0.2
v 1.1 1.8 2
v 1.1 1.8 1.8
v 1.1 1.8 1.4
v 1.1 1.8 1.3
v 1.1 1.8 0.2
v 1.1 1.8 -2.38419e-007
v 1.1 1.8 -0.1
v 1.1 1.8 -0.3
v 1.1 1.8 -1.3
v 1.1 1.8 -1.4
v 1.1 1.8 -1.8
v 1.1 1.8 -2
v 1.1 1.9 2
v 1.1 1.9 1.8
v 1.1 1.9 1.4
v 1.1 1.9 0.2
v 1.1 1.9 0.0999999
v 1.1 1.9 -2.38419e-007
v 1.1 1.9 -0.1
v 1.1 1.9 -0.2
v 1.1 1.9 -0.3
v 1.1 1.9 -1.4
v 1.1 1.9 -1.8
v 1.1 1.9 -2
v 1.1 2 2
v 1.1 2 1.8
v 1.1 2 1.3
v 1.1 2 -1.3
v 1.1 2 -1.8
v 1.1 2 -2
v 1.1 2.3 1.3
v 1.1 2.3 -1.3
v 1.1 2.5 2
v 1.1 2.5 1.8
v 1.1 2.5 1.4
v 1.1 2.5 -1.4
v 1.1 2.5 -1.8
v 1.1 2.5 -2
v -2 1.1 2
v -2 1.3 2
v -2 1.4 2
v -2 1.9 2
v -2 2 2
v -2 2.5 2
v 1 1.2 2
v 1 1.3 2
v 1 1.8 2
v 1 1.9 2
v 1.1 1.1 2
v 1.1 1.2 2
v 1.1 1.3 2
v 1.1 1.4 2
v 1.1 1.8 2
v 1.1 1.9 2
v 1.1 2 2
v 1.1 2.5 2
v -1.9 1.3 1.9
v -1.9 1.4 1.9
v -1.9 1.9 1.9
v -1.9 2 1.9
v 1 1.3 1.9
v 1 1.4 1.9
v 1 1.9 1.9
v 1 2 1.9
v 1 1.3 1.8
v 1 1.4 1.8
v 1 1.9 1.8
v 1 2 1.8
v 1.1 1.3 1.8
v 1.1 1.4 1.8
v 1.1 1.9 1.8
v 1.1 2 1.8
v -2 2.4 1.3
v -2 2.5 1.3
v 0.8 2.4 1.3
v 0.8 2.5 1.3
v 0.9 2.3 1.3
v 0.9 2.4 1.3
v 1 1.4 1.3
v 1 1.8 1.3
v 1 2 1.3
v 1 2.3 1.3
v 1 2.4 1.3
v 1.1 1.4 1.3
v 1.1 1.8 1.3
v 1.1 2 1.3
v 1.1 2.3 1.3
v 0.8 2.4 1.2
v 0.8 2.5 1.2
v 0.9 2.4 1.2
v 0.9 2.5 1.2
v -2 2.4 -1.4
v -2 2.5 -1.4
v 0.9 2.3 -1.4
v 0.9 2.4 -1.4
v 1 1.3 -1.4
v 1 1.8 -1.4
v 1 1.9 -1.4
v 1 2.3 -1.4
v 1 2.4 -1.4
v 1.1 1.3 -1.4
v 1.1 1.8 -1.4
v 1.1 1.9 -1.4
v 1.1 2.5 -1.4
v -2 2.4 1.4
v -2 2.5 1.4
v 0.9 2.3 1.4
v 0.9 2.4 1.4
v 1 1.3 1.4
v 1 1.8 1.4
v 1 1.9 1.4
v 1 2.3 1.4
v 1 2.4 1.4
v 1.1 1.3 1.4
v 1.1 1.8 1.4
v 1.1 1.9 1.4
v 1.1 2.5 1.4
v 0.8 2.4 -1.2
v 0.8 2.5 -1.2
v 0.9 2.4 -1.2
v 0.9 2.5 -1.2
v -2 2.4 -1.3
v -2 2.5 -1.3
v 0.8 2.4 -1.3
v 0.8 2.5 -1.3
v 0.9 2.3 -1.3
v 0.9 2.4 -1.3
v 1 1.4 -1.3
v 1 1.8 -1.3
v 1 2 -1.3
v 1 2.3 -1.3
v 1 2.4 -1.3
v 1.1 1.4 -1.3
v 1.1 1.8 -1.3
v 1.1 2 -1.3
v 1.1 2.3 -1.3
v 1 1.3 -1.8
v 1 1.4 -1.8
v 1 1.9 -1.8
v 1 2 -1.8
v 1.1 1.3 -1.8
v 1.1 1.4 -1.8
v 1.1 1.9 -1.8
v 1.1 2 -1.8
v -1.9 1.3 -1.9
v -1.9 1.4 -1.9
v -1.9 1.9 -1.9
v -1.9 2 -1.9
v 1 1.3 -1.9
v 1 1.4 -1.9
v 1 1.9 -1.9
v 1 2 -1.9
v -2 1.1 -2
v -2 1.3 -2
v -2 1.4 -2
v -2 1.9 -2
v -2 2 -2
v -2 2.5 -2
v 1 1.2 -2
v 1 1.3 -2
v 1 1.8 -2
v 1 1.9 -2
v 1.1 1.1 -2
v 1.1 1.2 -2
v 1.1 1.3 -2
v 1.1 1.4 -2
v 1.1 1.8 -2
v 1.1 1.9 -2
v 1.1 2 -2
v 1.1 2.5 -2
v -2 1.1 2
v 1.1 1.1 2
v 1 1.1 1.8
v 1.1 1.1 1.8
v 1 1.1 1.4
v 1.1 1.1 1.4
v 1 1.1 -1.4
v 1.1 1.1 -1.4
v 1 1.1 -1.8
v 1.1 1.1 -1.8
v -2 1.1 -2
v 1.1 1.1 -2
v -2 1.4 2
v 1.1 1.4 2
v -1.9 1.4 1.9
v 1 1.4 1.9
v 1 1.4 1.8
v 1.1 1.4 1.8
v 1 1.4 1.3
v 1.1 1.4 1.3
v 1 1.4 -1.3
v 1.1 1.4 -1.3
v 1 1.4 -1.8
v 1.1 1.4 -1.8
v -1.9 1.4 -1.9
v 1 1.4 -1.9
v -2 1.4 -2
v 1.1 1.4 -2
v 1 1.8 1.4
v 1.1 1.8 1.4
v 1 1.8 1.3
v 1.1 1.8 1.3
v 1 1.8 -1.3
v 1.1 1.8 -1.3
v 1 1.8 -1.4
v 1.1 1.8 -1.4
v -2 2 2
v 1.1 2 2
v -1.9 2 1.9
v 1 2 1.9
v 1 2 1.8
v 1.1 2 1.8
v 1 2 1.3
v 1.1 2 1.3
v 1 2 -1.3
v 1.1 2 -1.3
v 1 2 -1.8
v 1.1 2 -1.8
v -1.9 2 -1.9
v 1 2 -1.9
v -2 2 -2
v 1.1 2 -2
v -2 1.3 2
v 1 1.3 2
v 1.1 1.3 2
v -1.9 1.3 1.9
v 1 1.3 1.9
v 1 1.3 1.8
v 1.1 1.3 1.8
v 1 1.3 1.4
v 1.1 1.3 1.4
v 1 1.3 -1.4
v 1.1 1.3 -1.4
v 1 1.3 -1.8
v 1.1 1.3 -1.8
v -1.9 1.3 -1.9
v 1 1.3 -1.9
v -2 1.3 -2
v 1 1.3 -2
v 1.1 1.3 -2
v -2 1.9 2
v 1 1.9 2
v 1.1 1.9 2
v -1.9 1.9 1.9
v 1 1.9 1.9
v 1 1.9 1.8
v 1.1 1.9 1.8
v 1 1.9 1.4
v 1.1 1.9 1.4
v 1 1.9 0.2
v 1.1 1.9 0.2
v 1 1.9 0.0999999
v 1.1 1.9 0.0999999
v 1 1.9 -2.38419e-007
v 1.1 1.9 -2.38419e-007
v 1 1.9 -0.1
v 1.1 1.9 -0.1
v 1 1.9 -0.2
v 1.1 1.9 -0.2
v 1 1.9 -0.3
v 1.1 1.9 -0.3
v 1 1.9 -1.4
v 1.1 1.9 -1.4
v 1 1.9 -1.8
v 1.1 1.9 -1.8
v -1.9 1.9 -1.9
v 1 1.9 -1.9
v -2 1.9 -2
v 1 1.9 -2
v 1.1 1.9 -2
v 0.9 2.3 1.4
v 1 2.3 1.4
v 0.9 2.3 1.3
v 1 2.3 1.3
v 1.1 2.3 1.3
v 0.9 2.3 -1.3
v 1 2.3 -1.3
v 1.1 2.3 -1.3
v 0.9 2.3 -1.4
v 1 2.3 -1.4
v -2 2.4 1.4
v 0.9 2.4 1.4
v -2 2.4 1.3
v 0.8 2.4 1.3
v 0.9 2.4 1.3
v 1 2.4 1.3
v 0.8 2.4 1.2
v 0.9 2.4 1.2
v 0.8 2.4 -1.2
v 0.9 2.4 -1.2
v -2 2.4 -1.3
v 0.8 2.4 -1.3
v 0.9 2.4 -1.3
v 1 2.4 -1.3
v -2 2.4 -1.4
v 0.9 2.4 -1.4
v -2 2.5 2
v 1.1 2.5 2
v -2 2.5 1.8
v 1.1 2.5 1.8
v -2 2.5 1.4
v 1.1 2.5 1.4
v -2 2.5 1.3
v 0.8 2.5 1.3
v 0.8 2.5 1.2
v 0.9 2.5 1.2
v -1.5 2.5 0.3
v -0.3 2.5 0.3
v -0.0999999 2.5 0.3
v 0.4 2.5 0.3
v -1.5 2.5 -0.3
v -0.3 2.5 -0.3
v -0.0999999 2.5 -0.3
v 0.4 2.5 -0.3
v 0.8 2.5 -1.2
v 0.9 2.5 -1.2
v -2 2.5 -1.3
v 0.8 2.5 -1.3
v -2 2.5 -1.4
v 1.1 2.5 -1.4
v -2 2.5 -1.8
v 1.1 2.5 -1.8
v -2 2.5 -2
v 1.1 2.5 -2

# faces
f 3/3/1 2/3/1 1/3/1
f 4/3/1 2/3/1 3/3/1
f 7/3/1 6/3/1 5/3/1
f 8/3/1 6/3/1 7/3/1
f 11/3/1 10/3/1 9/3/1
f 12/3/1 10/3/1 11/3/1
f 13/3/1 10/3/1 12/3/1
f 14/3/1 10/3/1 13/3/1
f 15/3/1 10/3/1 14/3/1
f 16/3/1 10/3/1 15/3/1
f 17/3/1 11/3/1 9/3/1
f 18/2/1 12/2/1 11/2/1
f 18/3/1 11/3/1 17/3/1
f 19/2/1 12/2/1 18/2/1
f 20/3/1 14/3/1 13/3/1
f 21/3/1 14/3/1 20/3/1
f 22/2/1 16/2/1 15/2/1
f 23/3/1 10/3/1 16/3/1
f 23/2/1 16/2/1 22/2/1
f 24/3/1 10/3/1 23/3/1
f 27/3/1 26/3/1 25/3/1
f 28/3/1 26/3/1 27/3/1
f 31/3/1 30/3/1 29/3/1
f 32/3/1 30/3/1 31/3/1
f 33/3/2 34/3/2 37/3/2
f 37/3/2 34/3/2 38/3/2
f 35/3/2 36/3/2 39/3/2
f 39/3/2 36/3/2 40/3/2
f 41/3/2 42/3/2 45/3/2
f 45/3/2 42/3/2 46/3/2
f 43/3/2 44/3/2 49/3/2
f 49/3/2 44/3/2 50/3/2
f 47/3/2 48/3/2 51/3/2
f 51/3/2 48/3/2 52/3/2
f 53/3/2 54/3/2 59/3/2
f 59/3/2 54/3/2 60/3/2
f 55/3/2 56/3/2 61/3/2
f 61/3/2 56/3/2 62/3/2
f 57/3/2 58/3/2 63/3/2
f 63/3/2 58/3/2 64/3/2
f 55/3/2 61/3/2 65/3/2
f 65/3/2 61/3/2 66/3/2
f 62/3/2 56/3/2 67/3/2
f 67/3/2 56/3/2 68/3/2
f 69/3/2 70/3/2 81/3/2
f 81/3/2 70/3/2 82/3/2
f 77/3/2 78/3/2 83/3/2
f 71/3/2 72/3/2 83/3/2
f 72/3/2 73/3/2 83/3/2
f 76/3/2 77/3/2 83/3/2
f 75/3/2 76/3/2 83/3/2
f 74/3/2 75/3/2 83/3/2
f 73/3/2 74/3/2 83/3/2
f 83/3/2 78/3/2 84/3/2
f 79/3/2 80/3/2 85/3/2
f 85/3/2 80/3/2 86/3/2
f 71/3/2 83/3/2 87/3/2
f 87/3/2 83/3/2 88/3/2
f 84/3/2 78/3/2 89/3/2
f 89/3/2 78/3/2 90/3/2
f 88/3/2 89/3/2 91/3/2
f 91/3/2 89/3/2 92/3/2
f 93/3/2 94/3/2 99/3/2
f 94/2/2 95/2/2 100/2/2
f 99/3/2 94/3/2 100/3/2
f 95/3/2 96/3/2 101/3/2
f 100/2/2 95/2/2 101/2/2
f 96/2/2 97/2/2 102/2/2
f 101/3/2 96/3/2 102/3/2
f 97/3/2 98/3/2 103/3/2
f 102/2/2 97/2/2 103/2/2
f 103/3/2 98/3/2 104/3/2
f 101/2/2 102/2/2 105/2/2
f 99/2/2 100/2/2 105/2/2
f 103/2/2 104/2/2 105/2/2
f 102/2/2 103/2/2 105/2/2
f 100/2/2 101/2/2 105/2/2
f 105/2/2 104/2/2 106/2/2
f 106/2/2 104/2/2 107/2/2
f 107/2/2 104/2/2 108/2/2
f 108/2/2 104/2/2 109/2/2
f 109/2/2 104/2/2 110/2/2
f 106/2/2 107/2/2 112/2/2
f 108/2/2 109/2/2 115/2/2
f 113/3/2 114/3/2 117/3/2
f 117/3/2 114/3/2 118/3/2
f 111/3/2 112/3/2 119/3/2
f 112/2/2 107/2/2 120/2/2
f 119/3/2 112/3/2 120/3/2
f 120/2/2 107/2/2 121/2/2
f 113/3/2 117/3/2 122/3/2
f 122/3/2 117/3/2 123/3/2
f 117/1/2 118/1/2 124/1/2
f 124/1/2 118/1/2 125/1/2
f 118/3/2 114/3/2 126/3/2
f 126/3/2 114/3/2 127/3/2
f 108/2/2 115/2/2 128/2/2
f 115/3/2 116/3/2 129/3/2
f 128/2/2 115/2/2 129/2/2
f 129/3/2 116/3/2 130/3/2
f 120/2/2 121/2/2 131/2/2
f 119/2/2 120/2/2 131/2/2
f 121/2/2 122/2/2 131/2/2
f 122/2/2 123/2/2 131/2/2
f 131/2/2 123/2/2 132/2/2
f 132/2/2 123/2/2 133/2/2
f 123/3/2 117/3/2 134/3/2
f 133/2/2 123/2/2 134/2/2
f 117/1/2 124/1/2 135/1/2
f 134/3/2 117/3/2 135/3/2
f 124/3/2 125/3/2 136/3/2
f 135/1/2 124/1/2 136/1/2
f 125/1/2 118/1/2 137/1/2
f 136/3/2 125/3/2 137/3/2
f 118/3/2 126/3/2 138/3/2
f 137/1/2 118/1/2 138/1/2
f 127/2/2 128/2/2 139/2/2
f 138/3/2 126/3/2 139/3/2
f 126/2/2 127/2/2 139/2/2
f 129/2/2 130/2/2 139/2/2
f 128/2/2 129/2/2 139/2/2
f 139/2/2 130/2/2 140/2/2
f 140/2/2 130/2/2 141/2/2
f 141/2/2 130/2/2 142/2/2
f 132/2/2 133/2/2 144/2/2
f 140/2/2 141/2/2 147/2/2
f 145/3/2 146/3/2 149/3/2
f 149/3/2 146/3/2 150/3/2
f 143/3/2 144/3/2 151/3/2
f 144/2/2 133/2/2 152/2/2
f 151/3/2 144/3/2 152/3/2
f 152/2/2 133/2/2 153/2/2
f 140/2/2 147/2/2 154/2/2
f 147/3/2 148/3/2 155/3/2
f 154/2/2 147/2/2 155/2/2
f 155/3/2 148/3/2 156/3/2
f 163/3/3 158/3/3 157/3/3
f 164/3/3 158/3/3 163/3/3
f 165/3/3 160/3/3 159/3/3
f 166/3/3 160/3/3 165/3/3
f 167/3/3 163/3/3 157/3/3
f 168/2/3 164/2/3 163/2/3
f 168/3/3 163/3/3 167/3/3
f 169/2/3 164/2/3 168/2/3
f 170/3/3 165/3/3 159/3/3
f 171/2/3 166/2/3 165/2/3
f 171/3/3 165/3/3 170/3/3
f 172/2/3 166/2/3 171/2/3
f 173/3/3 162/3/3 161/3/3
f 174/3/3 162/3/3 173/3/3
f 179/3/3 176/3/3 175/3/3
f 180/3/3 176/3/3 179/3/3
f 181/3/3 178/3/3 177/3/3
f 182/3/3 178/3/3 181/3/3
f 187/2/3 184/2/3 183/2/3
f 188/2/3 184/2/3 187/2/3
f 189/2/3 186/2/3 185/2/3
f 190/2/3 186/2/3 189/2/3
f 193/3/3 192/3/3 191/3/3
f 194/3/3 192/3/3 193/3/3
f 200/3/3 196/3/3 195/3/3
f 201/3/3 196/3/3 200/3/3
f 202/3/3 198/3/3 197/3/3
f 203/3/3 198/3/3 202/3/3
f 204/3/3 200/3/3 199/3/3
f 205/3/3 200/3/3 204/3/3
f 208/3/3 207/3/3 206/3/3
f 209/3/3 207/3/3 208/3/3
f 213/2/3 211/2/3 210/2/3
f 217/3/3 213/3/3 212/3/3
f 218/2/3 211/2/3 213/2/3
f 218/3/3 213/3/3 217/3/3
f 219/2/3 215/2/3 214/2/3
f 220/2/3 215/2/3 219/2/3
f 221/2/3 217/2/3 216/2/3
f 221/2/3 218/2/3 217/2/3
f 222/2/3 211/2/3 218/2/3
f 222/2/3 218/2/3 221/2/3
f 223/2/4 224/2/4 226/2/4
f 225/3/4 226/3/4 230/3/4
f 226/2/4 224/2/4 231/2/4
f 230/3/4 226/3/4 231/3/4
f 227/2/4 228/2/4 232/2/4
f 232/2/4 228/2/4 233/2/4
f 229/2/4 230/2/4 234/2/4
f 230/2/4 231/2/4 234/2/4
f 231/2/4 224/2/4 235/2/4
f 234/2/4 231/2/4 235/2/4
f 236/3/4 237/3/4 238/3/4
f 238/3/4 237/3/4 239/3/4
f 240/3/4 241/3/4 242/3/4
f 242/3/4 241/3/4 243/3/4
f 244/3/4 245/3/4 249/3/4
f 249/3/4 245/3/4 250/3/4
f 246/3/4 247/3/4 251/3/4
f 251/3/4 247/3/4 252/3/4
f 248/3/4 249/3/4 253/3/4
f 253/3/4 249/3/4 254/3/4
f 255/2/4 256/2/4 259/2/4
f 259/2/4 256/2/4 260/2/4
f 257/2/4 258/2/4 261/2/4
f 261/2/4 258/2/4 262/2/4
f 263/3/4 264/3/4 267/3/4
f 267/3/4 264/3/4 268/3/4
f 265/3/4 266/3/4 269/3/4
f 269/3/4 266/3/4 270/3/4
f 271/3/4 272/3/4 277/3/4
f 277/3/4 272/3/4 278/3/4
f 273/3/4 274/3/4 279/3/4
f 279/3/4 274/3/4 280/3/4
f 271/3/4 277/3/4 281/3/4
f 277/2/4 278/2/4 282/2/4
f 281/3/4 277/3/4 282/3/4
f 282/2/4 278/2/4 283/2/4
f 273/3/4 279/3/4 284/3/4
f 279/2/4 280/2/4 285/2/4
f 284/3/4 279/3/4 285/3/4
f 285/2/4 280/2/4 286/2/4
f 275/3/4 276/3/4 287/3/4
f 287/3/4 276/3/4 288/3/4
f 291/3/5 290/3/5 289/3/5
f 292/3/5 290/3/5 291/3/5
f 293/3/5 291/3/5 289/3/5
f 293/2/5 292/2/5 291/2/5
f 294/2/5 292/2/5 293/2/5
f 295/3/5 293/3/5 289/3/5
f 295/3/5 294/3/5 293/3/5
f 296/3/5 294/3/5 295/3/5
f 297/3/5 295/3/5 289/3/5
f 297/2/5 296/2/5 295/2/5
f 298/2/5 296/2/5 297/2/5
f 299/3/5 297/3/5 289/3/5
f 299/3/5 298/3/5 297/3/5
f 300/3/5 298/3/5 299/3/5
f 303/3/5 302/3/5 301/3/5
f 304/3/5 302/3/5 303/3/5
f 305/3/5 302/3/5 304/3/5
f 306/3/5 302/3/5 305/3/5
f 309/3/5 308/3/5 307/3/5
f 310/3/5 308/3/5 309/3/5
f 313/3/5 303/3/5 301/3/5
f 314/3/5 312/3/5 311/3/5
f 315/3/5 313/3/5 301/3/5
f 315/3/5 314/3/5 313/3/5
f 316/3/5 312/3/5 314/3/5
f 316/3/5 314/3/5 315/3/5
f 319/2/5 318/2/5 317/2/5
f 320/2/5 318/2/5 319/2/5
f 323/2/5 322/2/5 321/2/5
f 324/2/5 322/2/5 323/2/5
f 327/3/5 326/3/5 325/3/5
f 328/3/5 326/3/5 327/3/5
f 329/3/5 326/3/5 328/3/5
f 330/3/5 326/3/5 329/3/5
f 333/3/5 332/3/5 331/3/5
f 334/3/5 332/3/5 333/3/5
f 337/3/5 327/3/5 325/3/5
f 338/3/5 336/3/5 335/3/5
f 339/3/5 337/3/5 325/3/5
f 339/3/5 338/3/5 337/3/5
f 340/3/5 336/3/5 338/3/5
f 340/3/5 338/3/5 339/3/5
f 341/3/6 342/3/6 344/3/6
f 342/2/6 343/2/6 345/2/6
f 344/3/6 342/3/6 345/3/6
f 345/2/6 343/2/6 346/2/6
f 346/2/6 343/2/6 347/2/6
f 348/2/6 349/2/6 350/2/6
f 350/2/6 349/2/6 351/2/6
f 341/3/6 344/3/6 354/3/6
f 352/2/6 353/2/6 355/2/6
f 341/3/6 354/3/6 356/3/6
f 354/3/6 355/3/6 356/3/6
f 355/2/6 353/2/6 357/2/6
f 356/3/6 355/3/6 357/3/6
f 357/2/6 353/2/6 358/2/6
f 359/3/6 360/3/6 362/3/6
f 360/2/6 361/2/6 363/2/6
f 362/3/6 360/3/6 363/3/6
f 363/2/6 361/2/6 364/2/6
f 364/2/6 361/2/6 365/2/6
f 366/2/6 367/2/6 368/2/6
f 368/2/6 367/2/6 369/2/6
f 368/3/6 369/3/6 370/3/6
f 370/3/6 369/3/6 371/3/6
f 370/1/6 371/1/6 372/1/6
f 372/1/6 371/1/6 373/1/6
f 372/3/6 373/3/6 374/3/6
f 374/3/6 373/3/6 375/3/6
f 374/1/6 375/1/6 376/1/6
f 376/1/6 375/1/6 377/1/6
f 376/3/6 377/3/6 378/3/6
f 378/3/6 377/3/6 379/3/6
f 378/2/6 379/2/6 380/2/6
f 380/2/6 379/2/6 381/2/6
f 359/3/6 362/3/6 384/3/6
f 382/2/6 383/2/6 385/2/6
f 359/3/6 384/3/6 386/3/6
f 384/3/6 385/3/6 386/3/6
f 385/2/6 383/2/6 387/2/6
f 386/3/6 385/3/6 387/3/6
f 387/2/6 383/2/6 388/2/6
f 389/3/6 390/3/6 391/3/6
f 391/3/6 390/3/6 392/3/6
f 392/3/6 393/3/6 395/3/6
f 395/3/6 393/3/6 396/3/6
f 394/3/6 395/3/6 397/3/6
f 397/3/6 395/3/6 398/3/6
f 399/3/6 400/3/6 401/3/6
f 401/3/6 400/3/6 402/3/6
f 402/3/6 400/3/6 403/3/6
f 403/3/6 404/3/6 405/3/6
f 402/3/6 403/3/6 405/3/6
f 405/3/6 404/3/6 406/3/6
f 406/3/6 404/3/6 408/3/6
f 407/3/6 408/3/6 410/3/6
f 408/3/6 404/3/6 411/3/6
f 410/3/6 408/3/6 411/3/6
f 411/3/6 404/3/6 412/3/6
f 409/3/6 410/3/6 413/3/6
f 410/3/6 411/3/6 413/3/6
f 413/3/6 411/3/6 414/3/6
f 415/3/6 416/3/6 417/3/6
f 417/3/6 416/3/6 418/3/6
f 417/2/6 418/2/6 419/2/6
f 419/2/6 418/2/6 420/2/6
f 421/3/6 422/3/6 423/3/6
f 421/3/6 423/3/6 425/3/6
f 423/3/6 424/3/6 425/3/6
f 425/3/6 424/3/6 426/3/6
f 426/3/6 424/3/6 427/3/6
f 427/3/6 424/3/6 428/3/6
f 421/3/6 425/3/6 429/3/6
f 425/4/6 426/4/6 429/4/6
f 426/3/6 427/3/6 430/3/6
f 429/4/6 426/4/6 430/4/6
f 427/4/6 428/4/6 431/4/6
f 430/3/6 427/3/6 431/3/6
f 428/3/6 424/3/6 432/3/6
f 431/4/6 428/4/6 432/4/6
f 430/3/6 431/3/6 433/3/6
f 432/3/6 424/3/6 433/3/6
f 431/3/6 432/3/6 433/3/6
f 429/3/6 430/3/6 433/3/6
f 433/3/6 424/3/6 434/3/6
f 421/3/6 429/3/6 435/3/6
f 429/3/6 433/3/6 435/3/6
f 435/3/6 433/3/6 436/3/6
f 437/2/6 438/2/6 439/2/6
f 439/2/6 438/2/6 440/2/6
f 439/3/6 440/3/6 441/3/6
f 441/3/6 440/3/6 442/3/6
